<?xml version="1.0" encoding="UTF-8"?>
<svg width="55px" height="30px" viewBox="0 0 46 22" version="1.1" xmlns="http://www.w3.org/2000/svg" xmlns:xlink="http://www.w3.org/1999/xlink">
    <!-- Generator: Sketch 47.1 (45422) - http://www.bohemiancoding.com/sketch -->
    <desc>Created with Sketch.</desc>
    <defs></defs>
    <g id="Symbols" stroke="none" stroke-width="1" fill="none" fill-rule="evenodd">
        <path d="M42.8327901,15.2466451 C43.8688555,14.7236697 44.7453331,14.8847092 45.2633658,15.7290726 C45.8610783,16.6939277 45.0243265,17.940314 44.3072085,18.7445902 C42.9524239,20.1918728 40.4024426,21.2373628 37.0554353,21.2373628 C30.3216949,21.2373628 26.3372493,16.6135231 26.3372493,10.5424007 C26.3372493,4.02870758 30.9194074,0.168826596 36.8561217,0.168826596 C42.1556261,0.168826596 45.6617647,2.94313045 45.6617647,6.68251975 C45.6617647,10.2207824 42.6734305,12.5124283 39.2866974,12.5124283 C37.4538342,12.5124283 36.0992779,12.1504925 35.1828463,11.4268512 C34.8241732,11.1453199 34.6248596,11.1856374 34.6248596,11.5072558 C34.6248596,12.8340467 35.1033949,13.9599413 35.9796441,14.8443918 C36.6967621,15.5682634 38.0515467,16.050691 39.3268798,16.050691 C40.641482,16.050691 41.7969529,15.7691597 42.8327901,15.2466451 Z M22.6317971,0.763958777 C24.5443401,1.12566423 25.1020985,2.17115426 25.1020985,3.94028557 C25.1020985,5.70941689 24.7036996,7.88057114 23.8269938,11.3792074 C23.030196,14.5152168 22.1534901,16.8471802 21.3167382,18.7771207 C20.6395743,20.3453557 20.0019077,20.9081878 18.6073974,20.9081878 C17.2128871,20.9081878 16.6151746,20.104142 15.8980566,18.9381602 L13.9855136,15.9224122 C13.5471607,15.2390884 13.1884875,14.8771526 12.5510493,14.8771526 C11.913611,14.8771526 11.5549379,15.2390884 11.1165849,15.9224122 L9.20404191,18.9381602 C8.4869239,20.104142 7.8892114,20.9081878 6.4947011,20.9081878 C5.10019081,20.9081878 4.46252426,20.3453557 3.78536029,18.7771207 C2.94860846,16.8471802 2.07190257,14.5152168 1.27510478,11.3792074 C0.398398897,7.88057114 1.42108547e-14,5.70941689 1.42108547e-14,3.94028557 C1.42108547e-14,2.17115426 0.557758456,1.12566423 2.47030147,0.763958777 C5.10019081,0.281300864 8.64628346,3.55271368e-15 12.5510493,3.55271368e-15 C16.4558151,3.55271368e-15 20.0019077,0.281300864 22.6317971,0.763958777 Z" id="wt_logo" fill="#000000"></path>
    </g>
</svg>